<svg width="194" height="90" viewBox="0 0 194 90" fill="none" xmlns="http://www.w3.org/2000/svg">
<path d="M144 37.5C144 40.8152 145.317 43.9946 147.661 46.3388C150.005 48.683 153.185 50 156.5 50C159.815 50 162.995 48.683 165.339 46.3388C167.683 43.9946 169 40.8152 169 37.5C169 34.1848 167.683 31.0054 165.339 28.6612C162.995 26.317 159.815 25 156.5 25C153.185 25 150.005 26.317 147.661 28.6612C145.317 31.0054 144 34.1848 144 37.5Z" stroke="black" stroke-width="2" stroke-linecap="round" stroke-linejoin="round"/>
<path d="M94 37.5C94 40.8152 95.317 43.9946 97.6612 46.3388C100.005 48.683 103.185 50 106.5 50C109.815 50 112.995 48.683 115.339 46.3388C117.683 43.9946 119 40.8152 119 37.5C119 34.1848 117.683 31.0054 115.339 28.6612C112.995 26.317 109.815 25 106.5 25C103.185 25 100.005 26.317 97.6612 28.6612C95.317 31.0054 94 34.1848 94 37.5Z" stroke="black" stroke-width="2" stroke-linecap="round" stroke-linejoin="round"/>
<path d="M53.625 22C56.6865 21.9998 59.6806 22.899 62.2354 24.5859C64.7902 26.2728 66.7932 28.6731 67.9955 31.4886C69.1978 34.3041 69.5466 37.4108 68.9984 40.4228C68.4502 43.4349 67.0292 46.2195 64.912 48.4308C62.7947 50.6421 60.0745 52.1828 57.0892 52.8614C54.1038 53.5399 50.9849 53.3265 48.1198 52.2477C45.2547 51.1689 42.7696 49.2721 40.9733 46.793C39.177 44.3139 38.1485 41.3617 38.0156 38.3031L38 37.625L38.0156 36.9469C38.1904 32.9242 39.9113 29.1243 42.8194 26.3396C45.7276 23.5548 49.5986 22.0002 53.625 22Z" fill="white"/>
</svg>
