<svg width="42" height="37" viewBox="0 0 42 37" fill="none" xmlns="http://www.w3.org/2000/svg">
<path d="M36.8125 26.6667H10.2709L5.16669 6.25H41.9167L36.8125 26.6667Z" fill="#DADADA"/>
<path d="M0.0625 0.125H3.63542L5.16667 6.25M5.16667 6.25L10.2708 26.6667H36.8125L41.9167 6.25H5.16667Z" stroke="black" stroke-width="2" stroke-linecap="round" stroke-linejoin="round"/>
<path d="M10.2708 36.875C11.9622 36.875 13.3333 35.5039 13.3333 33.8125C13.3333 32.1211 11.9622 30.75 10.2708 30.75C8.57944 30.75 7.20831 32.1211 7.20831 33.8125C7.20831 35.5039 8.57944 36.875 10.2708 36.875Z" stroke="black" stroke-width="2" stroke-linecap="round" stroke-linejoin="round"/>
<path d="M36.8125 36.875C38.5039 36.875 39.875 35.5039 39.875 33.8125C39.875 32.1211 38.5039 30.75 36.8125 30.75C35.1211 30.75 33.75 32.1211 33.75 33.8125C33.75 35.5039 35.1211 36.875 36.8125 36.875Z" stroke="black" stroke-width="2" stroke-linecap="round" stroke-linejoin="round"/>
</svg>
