<svg width="82" height="82" viewBox="0 0 82 82" fill="none" xmlns="http://www.w3.org/2000/svg">
<path fill-rule="evenodd" clip-rule="evenodd" d="M20.2292 27C15.9249 27 11.797 28.7099 8.75341 31.7534C5.70985 34.797 4 38.9249 4 43.2292V63.7292C4 68.0334 5.70985 72.1614 8.75341 75.2049C11.797 78.2485 15.9249 79.9583 20.2292 79.9583H61.2292C65.5334 79.9583 69.6614 78.2485 72.7049 75.2049C75.7485 72.1614 77.4583 68.0334 77.4583 63.7292V43.2292C77.4583 38.9249 75.7485 34.797 72.7049 31.7534C69.6614 28.7099 65.5334 27 61.2292 27H20.2292ZM49.3733 64.6858L58.7692 55.29C59.249 54.8095 59.5186 54.1582 59.5186 53.4792C59.5186 52.8001 59.249 52.1488 58.7692 51.6683L49.3733 42.2725C49.1387 42.0207 48.8558 41.8188 48.5415 41.6787C48.2272 41.5387 47.8879 41.4634 47.5438 41.4573C47.1997 41.4512 46.858 41.5145 46.5389 41.6434C46.2198 41.7723 45.93 41.9641 45.6866 42.2075C45.4433 42.4508 45.2515 42.7406 45.1226 43.0597C44.9937 43.3788 44.9304 43.7205 44.9365 44.0646C44.9426 44.4087 45.0179 44.748 45.1579 45.0623C45.298 45.3767 45.4999 45.6596 45.7517 45.8942L50.7742 50.9167H22.7917C22.112 50.9167 21.4603 51.1866 20.9797 51.6672C20.4991 52.1478 20.2292 52.7995 20.2292 53.4792C20.2292 54.1588 20.4991 54.8106 20.9797 55.2911C21.4603 55.7717 22.112 56.0417 22.7917 56.0417H50.7742L45.7517 61.0642C45.4999 61.2988 45.298 61.5817 45.1579 61.896C45.0179 62.2103 44.9426 62.5496 44.9365 62.8937C44.9304 63.2378 44.9937 63.5796 45.1226 63.8986C45.2515 64.2177 45.4433 64.5075 45.6866 64.7509C45.93 64.9942 46.2198 65.186 46.5389 65.3149C46.858 65.4438 47.1997 65.5071 47.5438 65.501C47.8879 65.495 48.2272 65.4196 48.5415 65.2796C48.8558 65.1395 49.1387 64.9376 49.3733 64.6858Z" fill="#F7A22B"/>
</svg>
