<svg width="82" height="82" viewBox="0 0 82 82" fill="none" xmlns="http://www.w3.org/2000/svg">
<path fill-rule="evenodd" clip-rule="evenodd" d="M20.2292 15C15.9249 15 11.797 16.7099 8.75341 19.7534C5.70985 22.797 4 26.9249 4 31.2292V51.7292C4 56.0334 5.70985 60.1614 8.75341 63.2049C11.797 66.2485 15.9249 67.9583 20.2292 67.9583H61.2292C65.5334 67.9583 69.6614 66.2485 72.7049 63.2049C75.7485 60.1614 77.4583 56.0334 77.4583 51.7292V31.2292C77.4583 26.9249 75.7485 22.797 72.7049 19.7534C69.6614 16.7099 65.5334 15 61.2292 15H20.2292ZM49.3733 52.6858L58.7692 43.29C59.249 42.8095 59.5186 42.1582 59.5186 41.4792C59.5186 40.8001 59.249 40.1488 58.7692 39.6683L49.3733 30.2725C49.1387 30.0207 48.8558 29.8188 48.5415 29.6787C48.2272 29.5387 47.8879 29.4634 47.5438 29.4573C47.1997 29.4512 46.858 29.5145 46.5389 29.6434C46.2198 29.7723 45.93 29.9641 45.6866 30.2075C45.4433 30.4508 45.2515 30.7406 45.1226 31.0597C44.9937 31.3788 44.9304 31.7205 44.9365 32.0646C44.9426 32.4087 45.0179 32.748 45.1579 33.0623C45.298 33.3767 45.4999 33.6596 45.7517 33.8942L50.7742 38.9167H22.7917C22.112 38.9167 21.4603 39.1866 20.9797 39.6672C20.4991 40.1478 20.2292 40.7995 20.2292 41.4792C20.2292 42.1588 20.4991 42.8106 20.9797 43.2911C21.4603 43.7717 22.112 44.0417 22.7917 44.0417H50.7742L45.7517 49.0642C45.4999 49.2988 45.298 49.5817 45.1579 49.896C45.0179 50.2103 44.9426 50.5496 44.9365 50.8937C44.9304 51.2378 44.9937 51.5796 45.1226 51.8986C45.2515 52.2177 45.4433 52.5075 45.6866 52.7509C45.93 52.9942 46.2198 53.186 46.5389 53.3149C46.858 53.4438 47.1997 53.5071 47.5438 53.501C47.8879 53.495 48.2272 53.4196 48.5415 53.2796C48.8558 53.1395 49.1387 52.9376 49.3733 52.6858Z" fill="#F7A22B"/>
</svg>
