<svg width="82" height="82" viewBox="0 0 82 82" fill="none" xmlns="http://www.w3.org/2000/svg">
<path fill-rule="evenodd" clip-rule="evenodd" d="M20.5 14.5208C16.1958 14.5208 12.0678 16.2306 9.02429 19.2742C5.98073 22.3177 4.27087 26.4457 4.27087 30.7499V51.2499C4.27087 55.5542 5.98073 59.6821 9.02429 62.7257C12.0678 65.7692 16.1958 67.4791 20.5 67.4791H61.5C65.8043 67.4791 69.9322 65.7692 72.9758 62.7257C76.0194 59.6821 77.7292 55.5542 77.7292 51.2499V30.7499C77.7292 26.4457 76.0194 22.3177 72.9758 19.2742C69.9322 16.2306 65.8043 14.5208 61.5 14.5208H20.5ZM49.6442 52.2066L59.04 42.8108C59.5199 42.3303 59.7895 41.679 59.7895 40.9999C59.7895 40.3209 59.5199 39.6696 59.04 39.1891L49.6442 29.7933C49.4096 29.5415 49.1267 29.3396 48.8124 29.1995C48.4981 29.0594 48.1587 28.9841 47.8147 28.9781C47.4706 28.972 47.1288 29.0353 46.8097 29.1642C46.4907 29.293 46.2008 29.4849 45.9575 29.7282C45.7142 29.9715 45.5223 30.2614 45.3935 30.5805C45.2646 30.8995 45.2013 31.2413 45.2074 31.5854C45.2134 31.9294 45.2887 32.2688 45.4288 32.5831C45.5688 32.8974 45.7708 33.1803 46.0225 33.4149L51.045 38.4374H23.0625C22.3829 38.4374 21.7311 38.7074 21.2506 39.188C20.77 39.6685 20.5 40.3203 20.5 40.9999C20.5 41.6795 20.77 42.3313 21.2506 42.8119C21.7311 43.2924 22.3829 43.5624 23.0625 43.5624H51.045L46.0225 48.5849C45.7708 48.8195 45.5688 49.1024 45.4288 49.4167C45.2887 49.7311 45.2134 50.0704 45.2074 50.4145C45.2013 50.7585 45.2646 51.1003 45.3935 51.4194C45.5223 51.7385 45.7142 52.0283 45.9575 52.2716C46.2008 52.515 46.4907 52.7068 46.8097 52.8357C47.1288 52.9646 47.4706 53.0278 47.8147 53.0218C48.1587 53.0157 48.4981 52.9404 48.8124 52.8003C49.1267 52.6603 49.4096 52.4583 49.6442 52.2066Z" fill="#F7A22B"/>
</svg>
