<svg width="38" height="38" viewBox="0 0 38 38" fill="none" xmlns="http://www.w3.org/2000/svg">
<path d="M6.33329 31.6667C5.46246 31.6667 4.71724 31.3569 4.09763 30.7373C3.47801 30.1176 3.16768 29.3719 3.16663 28.5V9.50001C3.16663 8.62918 3.47696 7.88395 4.09763 7.26434C4.71829 6.64473 5.46351 6.3344 6.33329 6.33334H31.6666C32.5375 6.33334 33.2832 6.64368 33.9039 7.26434C34.5245 7.88501 34.8343 8.63023 34.8333 9.50001V28.5C34.8333 29.3708 34.5235 30.1166 33.9039 30.7373C33.2843 31.3579 32.5385 31.6677 31.6666 31.6667H6.33329ZM19 20.5833L6.33329 12.6667V28.5H31.6666V12.6667L19 20.5833ZM19 17.4167L31.6666 9.50001H6.33329L19 17.4167ZM6.33329 12.6667V9.50001V28.5V12.6667Z" fill="#DADADA"/>
</svg>
