<svg width="50" height="50" viewBox="0 0 50 50" fill="none" xmlns="http://www.w3.org/2000/svg">
<path d="M8.33335 41.6663C7.18752 41.6663 6.20696 41.2587 5.39169 40.4434C4.57641 39.6281 4.16808 38.6469 4.16669 37.4997V12.4997C4.16669 11.3538 4.57502 10.3733 5.39169 9.55801C6.20835 8.74273 7.18891 8.3344 8.33335 8.33301H41.6667C42.8125 8.33301 43.7938 8.74134 44.6104 9.55801C45.4271 10.3747 45.8347 11.3552 45.8334 12.4997V37.4997C45.8334 38.6455 45.4257 39.6268 44.6104 40.4434C43.7952 41.2601 42.8139 41.6677 41.6667 41.6663H8.33335ZM25 27.083L8.33335 16.6663V37.4997H41.6667V16.6663L25 27.083ZM25 22.9163L41.6667 12.4997H8.33335L25 22.9163ZM8.33335 16.6663V12.4997V37.4997V16.6663Z" fill="black"/>
</svg>
