<svg width="50" height="50" viewBox="0 0 50 50" fill="none" xmlns="http://www.w3.org/2000/svg">
<path d="M16.25 4.16699H33.75C40.4167 4.16699 45.8334 9.58366 45.8334 16.2503V33.7503C45.8334 36.955 44.5603 40.0285 42.2942 42.2945C40.0282 44.5606 36.9547 45.8337 33.75 45.8337H16.25C9.58335 45.8337 4.16669 40.417 4.16669 33.7503V16.2503C4.16669 13.0456 5.43975 9.97218 7.70581 7.70612C9.97188 5.44005 13.0453 4.16699 16.25 4.16699ZM15.8334 8.33366C13.8442 8.33366 11.9366 9.12384 10.5301 10.5304C9.12353 11.9369 8.33335 13.8445 8.33335 15.8337V34.167C8.33335 38.3128 11.6875 41.667 15.8334 41.667H34.1667C36.1558 41.667 38.0635 40.8768 39.47 39.4703C40.8765 38.0638 41.6667 36.1561 41.6667 34.167V15.8337C41.6667 11.6878 38.3125 8.33366 34.1667 8.33366H15.8334ZM35.9375 11.4587C36.6282 11.4587 37.2906 11.733 37.7789 12.2214C38.2673 12.7098 38.5417 13.3722 38.5417 14.0628C38.5417 14.7535 38.2673 15.4159 37.7789 15.9043C37.2906 16.3926 36.6282 16.667 35.9375 16.667C35.2469 16.667 34.5845 16.3926 34.0961 15.9043C33.6077 15.4159 33.3334 14.7535 33.3334 14.0628C33.3334 13.3722 33.6077 12.7098 34.0961 12.2214C34.5845 11.733 35.2469 11.4587 35.9375 11.4587ZM25 14.5837C27.7627 14.5837 30.4122 15.6811 32.3657 17.6346C34.3192 19.5881 35.4167 22.2377 35.4167 25.0003C35.4167 27.763 34.3192 30.4125 32.3657 32.366C30.4122 34.3195 27.7627 35.417 25 35.417C22.2374 35.417 19.5878 34.3195 17.6343 32.366C15.6808 30.4125 14.5834 27.763 14.5834 25.0003C14.5834 22.2377 15.6808 19.5881 17.6343 17.6346C19.5878 15.6811 22.2374 14.5837 25 14.5837ZM25 18.7503C23.3424 18.7503 21.7527 19.4088 20.5806 20.5809C19.4085 21.753 18.75 23.3427 18.75 25.0003C18.75 26.6579 19.4085 28.2476 20.5806 29.4197C21.7527 30.5918 23.3424 31.2503 25 31.2503C26.6576 31.2503 28.2473 30.5918 29.4194 29.4197C30.5915 28.2476 31.25 26.6579 31.25 25.0003C31.25 23.3427 30.5915 21.753 29.4194 20.5809C28.2473 19.4088 26.6576 18.7503 25 18.7503Z" fill="black"/>
</svg>
