<svg width="42" height="42" viewBox="0 0 42 42" fill="none" xmlns="http://www.w3.org/2000/svg">
<path d="M37.6703 35.0041L30.0706 27.4011C32.3492 24.4317 33.4131 20.7068 33.0463 16.9819C32.6795 13.257 30.9096 9.81107 28.0956 7.34314C25.2815 4.87522 21.6341 3.5701 17.8932 3.69253C14.1523 3.81496 10.598 5.35578 7.95139 8.00242C5.30475 10.6491 3.76393 14.2033 3.6415 17.9442C3.51907 21.6852 4.82419 25.3326 7.29212 28.1466C9.76004 30.9606 13.206 32.7305 16.9309 33.0973C20.6558 33.4641 24.3807 32.4002 27.3501 30.1216L34.9562 37.7293C35.1349 37.908 35.3469 38.0497 35.5803 38.1463C35.8137 38.243 36.0639 38.2928 36.3165 38.2928C36.5691 38.2928 36.8192 38.243 37.0526 38.1463C37.286 38.0497 37.4981 37.908 37.6767 37.7293C37.8553 37.5507 37.997 37.3386 38.0937 37.1053C38.1904 36.8719 38.2401 36.6217 38.2401 36.3691C38.2401 36.1165 38.1904 35.8663 38.0937 35.6329C37.997 35.3996 37.8553 35.1875 37.6767 35.0089L37.6703 35.0041ZM7.50657 18.4395C7.50657 16.2873 8.14479 14.1834 9.34051 12.3939C10.5362 10.6043 12.2358 9.20956 14.2242 8.38594C16.2126 7.56231 18.4006 7.34681 20.5115 7.76669C22.6223 8.18657 24.5613 9.22298 26.0832 10.7448C27.6051 12.2667 28.6415 14.2057 29.0613 16.3166C29.4812 18.4275 29.2657 20.6154 28.4421 22.6039C27.6185 24.5923 26.2237 26.2918 24.4342 27.4875C22.6447 28.6832 20.5407 29.3215 18.3885 29.3215C15.5033 29.3185 12.7372 28.171 10.6971 26.1309C8.65698 24.0908 7.50954 21.3247 7.50657 18.4395Z" fill="black"/>
</svg>
