<svg width="50" height="50" viewBox="0 0 50 50" fill="none" xmlns="http://www.w3.org/2000/svg">
<path d="M26.0208 21.4003V20.4628H28.8271V33.6337H27.2229C26.9054 33.6342 26.6006 33.5089 26.3752 33.2851C26.1499 33.0614 26.0225 32.7574 26.0208 32.4399C24.8497 33.2978 23.4351 33.7612 21.9833 33.7587C20.1695 33.7587 18.43 33.0384 17.147 31.7563C15.8641 30.4741 15.1428 28.735 15.1417 26.9212C15.1428 25.1074 15.8641 23.3682 17.147 22.0861C18.43 20.8039 20.1695 20.0837 21.9833 20.0837C23.4344 20.0816 24.8502 20.5429 26.0208 21.4003ZM14.4146 16.2295V16.6566C14.4146 17.4524 14.3083 18.1024 13.7896 18.8649L13.7271 18.9357C13.5544 19.1297 13.3863 19.3277 13.2229 19.5295L4.21667 30.8337H14.4146V32.4337C14.4146 32.5914 14.3835 32.7476 14.323 32.8934C14.2626 33.0391 14.174 33.1715 14.0624 33.2829C13.9507 33.3944 13.8182 33.4827 13.6724 33.5429C13.5265 33.6031 13.3703 33.6339 13.2125 33.6337H0V32.8795C0 31.9566 0.229167 31.5441 0.520833 31.1149L10.1208 19.2295H0.4V16.2295H14.4146ZM32.2292 33.6337C31.9639 33.6337 31.7096 33.5283 31.5221 33.3408C31.3345 33.1532 31.2292 32.8989 31.2292 32.6337V16.2295H34.2312V33.6337H32.2292ZM43.1104 20.0003C44.0149 20.0001 44.9106 20.1779 45.7463 20.5238C46.582 20.8697 47.3415 21.3768 47.9812 22.0162C48.621 22.6555 49.1285 23.4146 49.4749 24.2502C49.8213 25.0857 49.9997 25.9813 50 26.8857C50.0003 27.7902 49.8224 28.6859 49.4765 29.5216C49.1306 30.3574 48.6235 31.1168 47.9842 31.7566C47.3448 32.3963 46.5857 32.9039 45.7502 33.2502C44.9146 33.5966 44.0191 33.7751 43.1146 33.7753C41.2879 33.7759 39.5358 33.0508 38.2438 31.7595C36.9517 30.4682 36.2256 28.7166 36.225 26.8899C36.2244 25.0632 36.9496 23.3111 38.2408 22.0191C39.5321 20.7271 41.2837 20.0009 43.1104 20.0003ZM21.9854 30.9441C22.5216 30.9563 23.0547 30.8612 23.5536 30.6645C24.0525 30.4677 24.507 30.1733 24.8905 29.7984C25.274 29.4235 25.5787 28.9758 25.7868 28.4815C25.9948 27.9873 26.102 27.4564 26.102 26.9201C26.102 26.3838 25.9948 25.853 25.7868 25.3587C25.5787 24.8644 25.274 24.4167 24.8905 24.0418C24.507 23.667 24.0525 23.3725 23.5536 23.1758C23.0547 22.979 22.5216 22.884 21.9854 22.8962C20.934 22.9201 19.9338 23.3545 19.1987 24.1066C18.4636 24.8586 18.052 25.8685 18.052 26.9201C18.052 27.9718 18.4636 28.9816 19.1987 29.7337C19.9338 30.4857 20.934 30.9202 21.9854 30.9441ZM43.1104 30.9378C44.1851 30.9378 45.2158 30.5109 45.9757 29.751C46.7356 28.9911 47.1625 27.9604 47.1625 26.8857C47.1625 25.8111 46.7356 24.7804 45.9757 24.0205C45.2158 23.2606 44.1851 22.8337 43.1104 22.8337C42.0357 22.8337 41.0051 23.2606 40.2452 24.0205C39.4852 24.7804 39.0583 25.8111 39.0583 26.8857C39.0583 27.9604 39.4852 28.9911 40.2452 29.751C41.0051 30.5109 42.0357 30.9378 43.1104 30.9378Z" fill="black"/>
</svg>
