<svg width="75" height="75" viewBox="0 0 75 75" fill="none" xmlns="http://www.w3.org/2000/svg">
<path d="M53.625 7C56.6865 6.99982 59.6806 7.89903 62.2354 9.58594C64.7902 11.2728 66.7932 13.6731 67.9955 16.4886C69.1978 19.3041 69.5466 22.4108 68.9984 25.4228C68.4502 28.4349 67.0292 31.2195 64.912 33.4308C62.7947 35.6421 60.0745 37.1828 57.0892 37.8614C54.1038 38.5399 50.9849 38.3265 48.1198 37.2477C45.2547 36.1689 42.7696 34.2721 40.9733 31.793C39.177 29.3139 38.1485 26.3617 38.0156 23.3031L38 22.625L38.0156 21.9469C38.1904 17.9242 39.9113 14.1243 42.8194 11.3396C45.7276 8.55482 49.5986 7.00023 53.625 7Z" fill="black"/>
</svg>
