<svg width="49" height="49" viewBox="0 0 49 49" fill="none" xmlns="http://www.w3.org/2000/svg">
<g clip-path="url(#clip0_36_266)">
<path d="M43.5556 6.80554H5.44444C4.00049 6.80554 2.61567 7.37915 1.59464 8.40018C0.57361 9.42121 0 10.806 0 12.25L0 36.75C0 38.1939 0.57361 39.5788 1.59464 40.5998C2.61567 41.6208 4.00049 42.1944 5.44444 42.1944H43.5556C44.9995 42.1944 46.3843 41.6208 47.4054 40.5998C48.4264 39.5788 49 38.1939 49 36.75V12.25C49 10.806 48.4264 9.42121 47.4054 8.40018C46.3843 7.37915 44.9995 6.80554 43.5556 6.80554Z" fill="#DA251D"/>
<path d="M26.886 21.8281L24.5 14.485L22.114 21.8281H14.3937L20.6399 26.3647L18.2538 33.7079L24.5 29.17L30.7461 33.7079L28.3601 26.3647L34.6062 21.8281H26.886Z" fill="#FFFF00"/>
</g>
<defs>
<clipPath id="clip0_36_266">
<rect width="49" height="49" fill="white"/>
</clipPath>
</defs>
</svg>
